<svg width="240" height="128" viewBox="0 0 240 128" fill="none" xmlns="http://www.w3.org/2000/svg">
<mask id="mask0_1_120" style="mask-type:alpha" maskUnits="userSpaceOnUse" x="-55" y="-57" width="326" height="241">
<path d="M126.36 33.638C126.36 58.1813 110.133 78.0776 90.115 78.0776C70.0974 78.0776 -54.9703 -8.00534 -54.9703 -32.5487C-54.9703 -57.092 124.728 -23.3035 144.745 -23.3035C164.763 -23.3035 126.36 9.09464 126.36 33.638Z" fill="url(#paint0_linear_1_120)"/>
<path d="M140.438 138.809C140.438 163.352 124.21 183.248 104.193 183.248C84.1749 183.248 -27.3403 177.528 -27.3403 152.984C-27.3403 128.441 -19.0972 70.3035 0.920348 70.3035C20.9379 70.3035 140.438 114.266 140.438 138.809Z" fill="url(#paint1_radial_1_120)"/>
<path d="M181.553 33.7053C235.564 82.4867 210.615 57.972 257.005 56.737C264.283 58.1389 276.637 58.2055 267.835 47.2569C256.832 33.5712 260.379 23.9049 246.628 8.99419C232.878 -5.91649 224.504 -21.0655 203.744 -44.7805C182.985 -68.4955 181.388 -48.9465 157.985 -50.7997C134.581 -52.6529 145.256 -49.71 112.965 -15.3005C80.6743 19.1091 127.542 -15.0761 181.553 33.7053Z" fill="#D9D9D9"/>
<path d="M130.562 110.436C58.2824 118.945 93.1617 116.319 63.5353 152.039C57.6871 156.591 49.4996 165.843 63.5353 166.432C81.08 167.167 86.0178 176.202 106.294 175.677C126.57 175.151 143.485 178.828 175.002 178.828C206.519 178.828 192.862 164.751 209.671 148.362C226.481 131.972 217.235 138.066 212.613 91.1049C207.99 44.1439 202.842 101.926 130.562 110.436Z" fill="#D9D9D9"/>
</mask>
<g mask="url(#mask0_1_120)">
<line x1="-5.38251" y1="84.5914" x2="246.547" y2="84.5914" stroke="white" stroke-opacity="0.09" stroke-width="0.210116"/>
<line x1="-5.38251" y1="30.8017" x2="246.547" y2="30.8017" stroke="white" stroke-opacity="0.09" stroke-width="0.210116"/>
<line x1="-5.38251" y1="57.6963" x2="246.547" y2="57.6963" stroke="white" stroke-opacity="0.09" stroke-width="0.210116"/>
<line x1="-5.38251" y1="111.486" x2="246.547" y2="111.486" stroke="white" stroke-opacity="0.09" stroke-width="0.210116"/>
<line x1="-5.38251" y1="3.90668" x2="246.547" y2="3.90668" stroke="white" stroke-opacity="0.09" stroke-width="0.210116"/>
<line x1="-5.38251" y1="71.1439" x2="246.547" y2="71.1439" stroke="white" stroke-opacity="0.09" stroke-width="0.210116"/>
<line x1="-5.38251" y1="124.934" x2="246.547" y2="124.934" stroke="white" stroke-opacity="0.09" stroke-width="0.210116"/>
<line x1="-5.38251" y1="17.3542" x2="246.547" y2="17.3542" stroke="white" stroke-opacity="0.09" stroke-width="0.210116"/>
<line x1="-5.38251" y1="44.2488" x2="246.547" y2="44.2488" stroke="white" stroke-opacity="0.09" stroke-width="0.210116"/>
<line x1="-5.38251" y1="98.0389" x2="246.547" y2="98.0389" stroke="white" stroke-opacity="0.09" stroke-width="0.210116"/>
<g opacity="0.7">
<rect x="136.981" y="111.476" width="13.371" height="13.371" fill="#0D6499" fill-opacity="0.1"/>
<rect x="69.7437" y="111.476" width="13.371" height="13.371" fill="#0D6499" fill-opacity="0.15"/>
<rect x="190.847" y="17.4972" width="13.371" height="13.18" fill="#0D6499" fill-opacity="0.11"/>
<rect x="83.1148" y="4.12621" width="13.371" height="13.18" fill="#0D6499" fill-opacity="0.13"/>
<rect x="177.285" y="30.8682" width="13.371" height="13.18" fill="#0D6499" fill-opacity="0.11"/>
<rect x="69.5527" y="17.4972" width="13.371" height="13.18" fill="#0D6499" fill-opacity="0.13"/>
<rect x="177.285" y="17.4972" width="13.371" height="13.18" fill="#0D6499" fill-opacity="0.11"/>
<rect x="69.5527" y="4.12621" width="13.371" height="13.18" fill="#0D6499" fill-opacity="0.13"/>
<rect x="56.3727" y="111.476" width="13.371" height="13.371" fill="#0D6499" fill-opacity="0.15"/>
<rect x="56.3727" y="124.848" width="13.371" height="13.5621" fill="#0D6499" fill-opacity="0.15"/>
<rect x="29.4396" y="98.1055" width="13.371" height="13.371" fill="#0D6499" fill-opacity="0.15"/>
<rect x="163.914" y="-9.4359" width="13.371" height="13.371" fill="#0D6499" fill-opacity="0.07"/>
<rect x="150.397" y="-9.6269" width="13.371" height="13.5621" fill="#0D6499" fill-opacity="0.07"/>
<rect x="29.4397" y="3.74417" width="13.5621" height="13.7531" fill="#0D6499" fill-opacity="0.06"/>
<rect x="15.8776" y="-9.62692" width="13.5621" height="13.371" fill="#0D6499" fill-opacity="0.06"/>
<rect x="2.50658" y="-9.43591" width="13.5621" height="13.371" fill="#0D6499" fill-opacity="0.06"/>
<rect x="15.8776" y="3.74417" width="13.5621" height="13.7531" fill="#0D6499" fill-opacity="0.06"/>
<rect x="29.4397" y="30.6773" width="13.371" height="13.5621" fill="#0D6499" fill-opacity="0.06"/>
<rect x="190.847" y="98.1055" width="13.371" height="13.371" fill="#0D6499" fill-opacity="0.08"/>
<rect x="204" y="111" width="13.371" height="13.371" fill="#0D6499" fill-opacity="0.08"/>
</g>
</g>
<defs>
<linearGradient id="paint0_linear_1_120" x1="31.5976" y1="-20.2568" x2="107.345" y2="20.0855" gradientUnits="userSpaceOnUse">
<stop stop-color="white"/>
<stop offset="1" stop-color="white" stop-opacity="0"/>
</linearGradient>
<radialGradient id="paint1_radial_1_120" cx="0" cy="0" r="1" gradientUnits="userSpaceOnUse" gradientTransform="translate(25.8191 139.852) rotate(-29.3932) scale(129.503 222.579)">
<stop stop-color="white"/>
<stop offset="1" stop-color="white" stop-opacity="0"/>
</radialGradient>
</defs>
</svg>
