<svg width="88" height="32" viewBox="0 0 88 32" fill="none" xmlns="http://www.w3.org/2000/svg">
<rect x="15.5957" width="22.0556" height="22.0556" rx="4.7947" transform="rotate(45 15.5957 0)" fill="#FF5A5A"/>
<rect x="21.0517" y="0.985497" width="22.0556" height="22.0556" rx="4.7947" transform="rotate(65.4777 21.0517 0.985497)" fill="#4E4BFF"/>
<rect x="7.55662" y="2.23158" width="22.0556" height="22.0556" rx="4.7947" transform="rotate(13.9714 7.55662 2.23158)" fill="#FFB14B"/>
<rect x="4.56787" y="4.56787" width="22.0556" height="22.0556" rx="4.7947" fill="white"/>
<path d="M10 10.3215C10 17.3793 10 19.6552 10 19.9109L15.7536 10.3215V19.9109L21.5073 10.3215V19.9109" stroke="#0F2026" stroke-width="2.87682" stroke-linecap="round" stroke-linejoin="round"/>
<path d="M46.028 11.3693H48.8659L46.028 20.2377H43.5449L42.1259 15.502L40.707 20.2377H38.2239L35.386 11.3693H38.2239L39.5009 16.1228L40.8844 11.3693H43.3675L44.751 16.1228L46.028 11.3693ZM54.5865 11.121C55.5325 11.121 56.3188 11.4462 56.9455 12.0965C57.584 12.7469 57.9033 13.6455 57.9033 14.7925V20.2377H55.2428V15.1827C55.2428 14.6624 55.095 14.2663 54.7993 13.9944C54.5156 13.7106 54.149 13.5687 53.6997 13.5687C53.1912 13.5687 52.7892 13.7224 52.4936 14.0298C52.198 14.3373 52.0502 14.7925 52.0502 15.3956V20.2377H49.3897V7.82201H52.0502V12.203C52.5823 11.4817 53.4277 11.121 54.5865 11.121ZM61.6458 10.1278C61.3384 10.4352 60.9659 10.5889 60.5284 10.5889C60.0909 10.5889 59.7125 10.4352 59.3933 10.1278C59.0858 9.80851 58.9321 9.43013 58.9321 8.99263C58.9321 8.55512 59.0858 8.18265 59.3933 7.87522C59.7125 7.55596 60.0909 7.39633 60.5284 7.39633C60.9659 7.39633 61.3384 7.55596 61.6458 7.87522C61.9651 8.18265 62.1247 8.55512 62.1247 8.99263C62.1247 9.43013 61.9651 9.80851 61.6458 10.1278ZM59.1982 20.2377V11.3693H61.8587V20.2377H59.1982ZM65.7055 13.9589C65.7055 14.1363 65.8533 14.2841 66.1489 14.4023C66.4563 14.5087 66.8229 14.6211 67.2485 14.7393C67.6742 14.8457 68.0999 14.9876 68.5256 15.165C68.9513 15.3424 69.3119 15.638 69.6075 16.0518C69.915 16.4538 70.0687 16.9623 70.0687 17.5772C70.0687 18.535 69.7139 19.2622 69.0045 19.7588C68.295 20.2436 67.42 20.486 66.3795 20.486C64.5112 20.486 63.2401 19.7824 62.5661 18.3753L64.8718 17.0628C65.1083 17.7605 65.6109 18.1093 66.3795 18.1093C67.018 18.1093 67.3372 17.926 67.3372 17.5594C67.3372 17.3821 67.1835 17.2343 66.8761 17.116C66.5805 16.9978 66.2198 16.8854 65.7941 16.779C65.3685 16.6608 64.9428 16.513 64.5171 16.3356C64.0914 16.1464 63.7249 15.8567 63.4174 15.4665C63.1218 15.0763 62.974 14.5974 62.974 14.0298C62.974 13.1075 63.3051 12.3922 63.9673 11.8837C64.6413 11.3753 65.469 11.121 66.4504 11.121C67.1835 11.121 67.8516 11.2866 68.4546 11.6177C69.0577 11.9369 69.5425 12.404 69.909 13.0188L67.6388 14.2427C67.355 13.7224 66.9588 13.4623 66.4504 13.4623C65.9538 13.4623 65.7055 13.6278 65.7055 13.9589ZM76.2548 11.121C77.4254 11.121 78.4245 11.5763 79.2523 12.4867C80.08 13.3854 80.4938 14.491 80.4938 15.8035C80.4938 17.116 80.08 18.2275 79.2523 19.138C78.4245 20.0367 77.4254 20.486 76.2548 20.486C75.1196 20.486 74.2387 20.1253 73.612 19.404V23.785H70.9515V11.3693H73.612V12.203C74.2387 11.4817 75.1196 11.121 76.2548 11.121ZM74.1973 17.3821C74.5993 17.7723 75.1078 17.9674 75.7227 17.9674C76.3375 17.9674 76.8401 17.7723 77.2303 17.3821C77.6323 16.9919 77.8333 16.4657 77.8333 15.8035C77.8333 15.1413 77.6323 14.6151 77.2303 14.2249C76.8401 13.8347 76.3375 13.6396 75.7227 13.6396C75.1078 13.6396 74.5993 13.8347 74.1973 14.2249C73.8071 14.6151 73.612 15.1413 73.612 15.8035C73.612 16.4657 73.8071 16.9919 74.1973 17.3821ZM84.1307 12.9479C84.2962 12.3803 84.6273 11.9487 85.1239 11.6531C85.6324 11.3457 86.1881 11.192 86.7912 11.192V14.2072C86.1408 14.1008 85.5319 14.2131 84.9643 14.5442C84.4085 14.8635 84.1307 15.4251 84.1307 16.2292V20.2377H81.4702V11.3693H84.1307V12.9479Z" fill="white"/>
</svg>
